<svg
      viewBox="0 0 300 300"
      fill="none"
      xmlns="http://www.w3.org/2000/svg"
      preserveAspectRatio="xMidYMid meet"
    >
      <g transform="translate(0.000000,300.000000) scale(0.100000,-0.100000)" fill="currentColor">
        <path d="M500 2744 c-177 -38 -348 -171 -429 -334 -54 -111 -71 -194 -71 -357
          l0 -133 408 0 c403 0 408 0 452 23 132 66 132 248 0 315 -40 20 -59 22 -192
          22 -135 0 -150 2 -168 20 -26 26 -25 55 1 81 20 20 29 20 187 17 144 -3 173
          -6 213 -24 213 -99 239 -397 45 -520 l-45 -29 -1 -320 0 -320 67 -35 c161 -83
          277 -268 290 -460 9 -132 -38 -269 -134 -392 l-44 -58 421 0 421 0 -44 58
          c-96 123 -143 260 -134 392 13 192 130 378 292 461 l65 34 0 320 -1 320 -45
          29 c-124 78 -167 243 -99 381 43 90 130 149 234 162 41 5 52 2 70 -16 11 -11
          21 -30 21 -41 0 -29 -35 -60 -68 -60 -15 0 -48 -10 -72 -22 -132 -67 -132
          -249 0 -315 44 -23 49 -23 452 -23 l408 0 0 133 c0 163 -17 246 -71 356 -82
          167 -251 298 -434 336 -101 21 -1896 21 -1995 -1z" />
        <path d="M0 1500 l0 -300 390 0 390 0 0 300 0 300 -390 0 -390 0 0 -300z" />
        <path d="M2220 1500 l0 -300 390 0 390 0 0 300 0 300 -390 0 -390 0 0 -300z" />
        <path d="M0 948 c0 -78 6 -162 15 -203 38 -182 170 -352 335 -434 117 -57 203
          -73 370 -69 125 3 139 6 189 32 154 80 253 280 224 450 -23 136 -119 273 -228
          326 l-50 25 -427 3 -428 3 0 -133z" />
        <path d="M2130 1063 c-138 -48 -252 -204 -267 -367 -15 -165 83 -347 228 -422
          50 -26 64 -29 189 -32 167 -4 253 12 370 69 165 82 297 252 335 434 9 41 15
          125 15 203 l0 132 -412 0 c-348 -1 -420 -3 -458 -17z" />
      </g>
    </svg>